<svg width="44" height="47" viewBox="0 0 44 47" fill="none" xmlns="http://www.w3.org/2000/svg">
<path d="M34.6979 46.8453H11.465C11.2856 46.8453 11.1135 46.7748 10.9866 46.6492C10.8598 46.5237 10.7885 46.3533 10.7885 46.1758V40.7415H8.06398C7.23223 40.7407 6.43475 40.4134 5.84652 39.8314C5.25828 39.2494 4.92736 38.4602 4.92631 37.6369V28.6422H1.96809C1.64107 28.6419 1.31929 28.5607 1.03196 28.4062C0.744633 28.2516 0.500811 28.0285 0.32259 27.7571C0.144369 27.4858 0.0373914 27.1747 0.0113416 26.852C-0.0147081 26.5294 0.0410054 26.2054 0.173421 25.9095L4.68274 15.9417C5.56152 11.4692 7.97924 7.43624 11.5243 4.5296C15.0694 1.62296 19.5228 0.0222893 24.1262 1.30347e-08C25.3227 -4.35412e-05 26.5166 0.109063 27.6928 0.325964C27.7816 0.340688 27.8664 0.372786 27.9425 0.420381C28.0185 0.467977 28.0842 0.530104 28.1357 0.60314C28.1872 0.676176 28.2235 0.758633 28.2424 0.845707C28.2613 0.932781 28.2624 1.02274 28.2457 1.11025C28.2291 1.19777 28.1949 1.28108 28.1453 1.35538C28.0957 1.42968 28.0316 1.49349 27.9568 1.54297C27.882 1.59245 27.798 1.62664 27.7096 1.64358C27.6213 1.66052 27.5304 1.65986 27.4424 1.64161C26.3487 1.43972 25.2386 1.33808 24.1262 1.33805C19.8321 1.36042 15.6787 2.85628 12.3742 5.57057C9.06978 8.28487 6.8188 12.0495 6.00508 16.2228C5.99664 16.2869 5.97938 16.3497 5.9538 16.4092L1.40996 26.455C1.37695 26.5271 1.35863 26.605 1.35603 26.6841C1.35343 26.7632 1.36661 26.842 1.39482 26.916C1.42303 26.9901 1.46569 27.0579 1.5204 27.1156C1.57511 27.1734 1.64078 27.2198 1.71365 27.2524C1.79371 27.2878 1.88042 27.3061 1.96809 27.3061H5.59879C5.68766 27.306 5.7757 27.3232 5.85783 27.3568C5.93996 27.3904 6.01458 27.4397 6.07742 27.5019C6.14026 27.5641 6.19008 27.638 6.22403 27.7193C6.25798 27.8005 6.27538 27.8877 6.27525 27.9756V37.6379C6.27577 38.1064 6.4641 38.5556 6.79892 38.8868C7.13373 39.218 7.58767 39.4041 8.06104 39.4044H11.462C11.6414 39.4044 11.8135 39.4749 11.9403 39.6005C12.0672 39.7261 12.1385 39.8964 12.1385 40.074V45.5092H34.0185V43.8422C33.9695 39.3944 35.488 35.0687 38.3129 31.6092C40.4958 28.9814 41.9106 25.8124 42.4039 22.4456C42.8972 19.0788 42.4502 15.6425 41.1113 12.5092C41.0728 12.4277 41.0513 12.3394 41.048 12.2495C41.0448 12.1596 41.0598 12.07 41.0923 11.986C41.1248 11.902 41.1741 11.8253 41.2372 11.7606C41.3003 11.6958 41.3759 11.6444 41.4596 11.6092C41.5433 11.574 41.6332 11.5559 41.7241 11.5559C41.815 11.5559 41.9049 11.574 41.9886 11.6092C42.0722 11.6444 42.1478 11.6959 42.2109 11.7606C42.274 11.8254 42.3233 11.9021 42.3558 11.9861C43.7925 15.3453 44.2726 19.0297 43.744 22.6398C43.2154 26.2499 41.6983 29.6479 39.3571 32.4652C36.7343 35.6843 35.3261 39.707 35.3744 43.8422V46.1788C35.3744 46.3563 35.3031 46.5266 35.1762 46.6522C35.0494 46.7777 34.8773 46.8483 34.6979 46.8483V46.8453Z" fill="#ADADAD"/>
<path d="M39.148 8.5984C39.0434 8.59889 38.9402 8.57543 38.8463 8.52989C38.7524 8.48435 38.6704 8.41797 38.6067 8.33587C38.2116 7.82117 37.7833 7.33217 37.3248 6.8719C37.2555 6.81374 37.1989 6.74234 37.1581 6.66204C37.1173 6.58173 37.0933 6.49415 37.0875 6.40446C37.0817 6.31477 37.0941 6.22485 37.1241 6.14003C37.1542 6.05521 37.2012 5.97721 37.2623 5.91075C37.3234 5.84428 37.3974 5.79067 37.4799 5.75313C37.5624 5.71558 37.6517 5.69485 37.7425 5.69219C37.8332 5.68953 37.9236 5.70499 38.0082 5.73764C38.0928 5.77029 38.1699 5.81945 38.2349 5.88221C38.2534 5.89874 38.2708 5.91636 38.2872 5.93493C38.7856 6.43571 39.2516 6.96705 39.6825 7.52579C39.7584 7.625 39.8048 7.74319 39.8166 7.86706C39.8284 7.99094 39.805 8.11561 39.7492 8.2271C39.6934 8.33859 39.6073 8.43244 39.5006 8.4982C39.3939 8.56396 39.2708 8.59899 39.1451 8.59935L39.148 8.5984Z" fill="#ADADAD"/>
<path d="M23.3325 19.9257C23.1531 19.9257 22.981 19.8552 22.8542 19.7296C22.7273 19.604 22.6561 19.4338 22.6561 19.2562V15.4108C22.6526 15.3208 22.6675 15.231 22.6999 15.1469C22.7323 15.0627 22.7816 14.9858 22.8447 14.9209C22.9078 14.856 22.9835 14.8044 23.0672 14.7691C23.1509 14.7339 23.241 14.7157 23.332 14.7157C23.423 14.7157 23.5131 14.7339 23.5968 14.7691C23.6806 14.8044 23.7563 14.856 23.8194 14.9209C23.8825 14.9858 23.9317 15.0627 23.9641 15.1469C23.9965 15.231 24.0114 15.3208 24.008 15.4108V19.2562C24.008 19.4338 23.9367 19.604 23.8099 19.7296C23.683 19.8552 23.5109 19.9257 23.3315 19.9257H23.3325Z" fill="#ADADAD"/>
<path d="M23.3324 16.0812C22.4938 16.0812 21.674 15.8351 20.9768 15.374C20.2795 14.9128 19.736 14.2573 19.4151 13.4905C19.0941 12.7236 19.0102 11.8799 19.1738 11.0658C19.3374 10.2517 19.7412 9.50385 20.3342 8.91693C20.9272 8.33 21.6827 7.9303 22.5052 7.76837C23.3277 7.60644 24.1803 7.6896 24.9551 8.00724C25.7299 8.32489 26.3921 8.86274 26.858 9.55289C27.3239 10.243 27.5726 11.0545 27.5726 11.8845V11.8845C27.5726 12.9975 27.1258 14.065 26.3307 14.852C25.5355 15.639 24.457 16.0812 23.3324 16.0812V16.0812ZM23.3324 9.03363C22.762 9.03363 22.2044 9.20108 21.73 9.51477C21.2557 9.82845 20.886 10.2743 20.6677 10.7959C20.4494 11.3176 20.3923 11.8916 20.5036 12.4453C20.6149 12.9991 20.8896 13.5078 21.2929 13.907C21.6963 14.3062 22.2102 14.5782 22.7697 14.6883C23.3292 14.7985 23.9092 14.7419 24.4362 14.5259C24.9632 14.3098 25.4137 13.9439 25.7306 13.4744C26.0475 13.0049 26.2167 12.453 26.2167 11.8884V11.8884C26.2157 11.1315 25.9115 10.4059 25.3708 9.87058C24.8302 9.33527 24.0972 9.03396 23.3324 9.03267V9.03363Z" fill="#E9272B"/>
<path d="M30.4519 24.0912C30.2725 24.0912 30.1004 24.0207 29.9736 23.8951C29.8467 23.7696 29.7754 23.5993 29.7754 23.4217V19.9257H16.8865V23.4217C16.8899 23.5117 16.875 23.6015 16.8426 23.6857C16.8102 23.7699 16.761 23.8467 16.6979 23.9116C16.6348 23.9765 16.559 24.0281 16.4753 24.0634C16.3916 24.0986 16.3015 24.1168 16.2105 24.1168C16.1195 24.1168 16.0294 24.0986 15.9457 24.0634C15.8619 24.0281 15.7863 23.9765 15.7231 23.9116C15.66 23.8467 15.6108 23.7699 15.5784 23.6857C15.546 23.6015 15.5311 23.5117 15.5346 23.4217V19.2562C15.5344 19.1683 15.5518 19.0811 15.5858 18.9998C15.6197 18.9186 15.6695 18.8447 15.7324 18.7825C15.7952 18.7203 15.8698 18.671 15.952 18.6374C16.0341 18.6038 16.1221 18.5865 16.211 18.5867H30.4529C30.5418 18.5865 30.6298 18.6038 30.7119 18.6374C30.794 18.671 30.8686 18.7203 30.9315 18.7825C30.9943 18.8447 31.0441 18.9186 31.0781 18.9998C31.112 19.0811 31.1295 19.1683 31.1293 19.2562V23.4217C31.1293 23.5097 31.1118 23.5969 31.0778 23.6782C31.0437 23.7595 30.9938 23.8333 30.9308 23.8955C30.8679 23.9577 30.7932 24.007 30.7111 24.0405C30.6289 24.0741 30.5408 24.0914 30.4519 24.0912V24.0912Z" fill="#E9272B"/>
<path d="M32.1441 28.775H28.7638C28.4053 28.775 28.0614 28.634 27.8079 28.3831C27.5544 28.1321 27.4119 27.7918 27.4119 27.4369V24.0912C27.4119 23.7363 27.5544 23.396 27.8079 23.1451C28.0614 22.8941 28.4053 22.7532 28.7638 22.7532H32.1441C32.5026 22.7532 32.8465 22.8941 33.1 23.1451C33.3536 23.396 33.496 23.7363 33.496 24.0912V27.435C33.4963 27.6109 33.4615 27.7851 33.3937 27.9476C33.3258 28.1102 33.2263 28.2579 33.1007 28.3824C32.9752 28.5068 32.8261 28.6056 32.6619 28.673C32.4978 28.7403 32.3218 28.775 32.1441 28.775ZM28.7638 24.0903V27.435H32.1441V24.0893L28.7638 24.0903Z" fill="#E9272B"/>
<path d="M17.9021 28.775H14.5218C14.1633 28.775 13.8194 28.634 13.5659 28.3831C13.3123 28.1321 13.1699 27.7918 13.1699 27.4369V24.0912C13.1699 23.7363 13.3123 23.396 13.5659 23.1451C13.8194 22.8941 14.1633 22.7532 14.5218 22.7532H17.9021C18.2606 22.7532 18.6045 22.8941 18.858 23.1451C19.1116 23.396 19.254 23.7363 19.254 24.0912V27.435C19.254 27.7899 19.1116 28.1302 18.858 28.3811C18.6045 28.6321 18.2606 28.773 17.9021 28.773V28.775ZM17.9021 24.0903H14.5218V27.435H17.9021V24.0903Z" fill="#E9272B"/>
<path d="M34.1161 4.13416C33.9927 4.13361 33.8716 4.0999 33.7661 4.03658C33.2193 3.70552 32.6551 3.40352 32.0759 3.13184C31.9923 3.09647 31.9168 3.04475 31.8538 2.97982C31.7908 2.91489 31.7417 2.83807 31.7094 2.75394C31.6771 2.6698 31.6623 2.5801 31.6659 2.49016C31.6694 2.40023 31.6912 2.3119 31.73 2.2305C31.7688 2.1491 31.8238 2.0763 31.8917 2.01641C31.9595 1.95652 32.0389 1.9108 32.1251 1.88196C32.2112 1.85313 32.3023 1.84179 32.393 1.8486C32.4837 1.85542 32.572 1.88026 32.6528 1.92163C33.2739 2.21346 33.8792 2.53724 34.4662 2.89172C34.5929 2.96717 34.6911 3.08175 34.7457 3.2178C34.8004 3.35385 34.8084 3.50388 34.7685 3.64485C34.7286 3.78583 34.6431 3.90994 34.5251 3.99816C34.4071 4.08638 34.263 4.13383 34.1151 4.1332L34.1161 4.13416Z" fill="#ADADAD"/>
</svg>
