<svg width="44" height="44" viewBox="0 0 44 44" fill="none" xmlns="http://www.w3.org/2000/svg">
<path d="M16.9009 22.2003H16.8926C15.7508 22.2017 14.6562 22.6505 13.8489 23.4483C13.0416 24.2461 12.5876 25.3277 12.5865 26.4559V38.85C12.5865 39.9795 13.0406 41.0627 13.849 41.8614C14.6573 42.66 15.7537 43.1087 16.8968 43.1087C18.04 43.1087 19.1363 42.66 19.9447 41.8614C20.753 41.0627 21.2071 39.9795 21.2071 38.85V26.4559C21.206 25.3277 20.752 24.2461 19.9447 23.4483C19.1374 22.6505 18.0428 22.2017 16.9009 22.2003V22.2003ZM19.4903 38.849C19.4576 39.5069 19.1701 40.1272 18.6873 40.5813C18.2046 41.0355 17.5635 41.2888 16.8968 41.2888C16.2302 41.2888 15.5891 41.0355 15.1063 40.5813C14.6235 40.1272 14.336 39.5069 14.3034 38.849V26.4559C14.305 25.7778 14.5783 25.1279 15.0635 24.6483C15.5487 24.1687 16.2063 23.8984 16.8926 23.8965H16.9009C17.5872 23.8984 18.2449 24.1687 18.7301 24.6483C19.2153 25.1279 19.4886 25.7778 19.4903 26.4559V38.849Z" fill="#ADADAD"/>
<path d="M16.9052 12.2556H4.30763C3.16653 12.2556 2.07216 12.7035 1.26528 13.5007C0.458404 14.2979 0.00509644 15.3792 0.00509644 16.5066C0.00509644 17.634 0.458404 18.7153 1.26528 19.5125C2.07216 20.3097 3.16653 20.7575 4.30763 20.7575H16.9062C18.0464 20.7562 19.1396 20.308 19.9459 19.5114C20.7522 18.7148 21.2058 17.6347 21.2071 16.5081C21.2066 15.3808 20.7532 14.2998 19.9466 13.5025C19.14 12.7052 18.0462 12.2567 16.9052 12.2556ZM19.4903 16.5071C19.4894 17.1842 19.2168 17.8335 18.7322 18.3123C18.2476 18.7911 17.5905 19.0604 16.9052 19.0612H4.30763C3.63111 19.0479 2.98688 18.7729 2.51323 18.2955C2.03959 17.8181 1.77433 17.1762 1.77433 16.5076C1.77433 15.8391 2.03959 15.1972 2.51323 14.7197C2.98688 14.2423 3.63111 13.9674 4.30763 13.954H16.9062C17.5915 13.9545 18.2485 14.2237 18.7332 14.7023C19.2178 15.181 19.4905 15.83 19.4913 16.5071V16.5071H19.4903Z" fill="#ADADAD"/>
<path d="M34.3842 20.7083H38.0952C39.3033 20.7053 40.461 20.2299 41.3152 19.3859C42.1695 18.5419 42.6508 17.398 42.6538 16.2044V15.3763C42.6357 14.1921 42.1468 13.0625 41.2929 12.2313C40.4389 11.4002 39.2882 10.9343 38.0895 10.9343C36.8908 10.9343 35.7401 11.4002 34.8861 12.2313C34.0321 13.0625 33.5433 14.1921 33.5253 15.3763V19.8628C33.5261 20.0873 33.6169 20.3024 33.7779 20.4609C33.9389 20.6193 34.1569 20.7083 34.3842 20.7083V20.7083ZM35.2421 15.3722C35.2421 14.6258 35.5422 13.91 36.0764 13.3822C36.6106 12.8544 37.335 12.5579 38.0905 12.5579C38.846 12.5579 39.5705 12.8544 40.1047 13.3822C40.6389 13.91 40.939 14.6258 40.939 15.3722V16.2044C40.9382 16.9494 40.6383 17.6635 40.1051 18.1903C39.572 18.717 38.8492 19.0133 38.0952 19.0141H35.2421V15.3722Z" fill="#E9272B"/>
<path d="M9.57233 22.3994H5.86233C4.65354 22.4019 3.49495 22.8773 2.6402 23.7218C1.78546 24.5663 1.3042 25.7111 1.30173 26.9054V27.7335C1.30173 28.9296 1.78268 30.0768 2.63874 30.9226C3.4948 31.7684 4.65586 32.2436 5.86651 32.2436C7.07717 32.2436 8.23823 31.7684 9.09429 30.9226C9.95035 30.0768 10.4312 28.9296 10.4312 27.7335V23.248C10.4312 23.023 10.3408 22.8071 10.1797 22.6479C10.0186 22.4888 9.80014 22.3994 9.57233 22.3994ZM8.71444 27.7356C8.70019 28.4724 8.39393 29.1742 7.86149 29.6903C7.32905 30.2064 6.61292 30.4956 5.86702 30.4956C5.12113 30.4956 4.405 30.2064 3.87256 29.6903C3.34012 29.1742 3.03385 28.4724 3.01961 27.7356V26.9074C3.02043 26.1625 3.32035 25.4483 3.85348 24.9216C4.38661 24.3948 5.10945 24.0985 5.86341 24.0977H8.71545L8.71444 27.7356Z" fill="#E9272B"/>
<path d="M15.9787 10.6179H19.6897C19.8024 10.618 19.9141 10.5962 20.0183 10.5537C20.1225 10.5111 20.2172 10.4487 20.297 10.37C20.3768 10.2912 20.4401 10.1978 20.4832 10.0949C20.5264 9.99197 20.5486 9.88164 20.5486 9.77025V5.28379C20.5305 4.09956 20.0417 2.96993 19.1877 2.1388C18.3337 1.30767 17.1831 0.841797 15.9844 0.841797C14.7857 0.841797 13.635 1.30767 12.781 2.1388C11.927 2.96993 11.4382 4.09956 11.4202 5.28379V6.11298C11.4229 7.30675 11.904 8.45083 12.7583 9.29505C13.6125 10.1393 14.7704 10.6149 15.9787 10.6179ZM13.136 5.28178C13.136 4.53552 13.436 3.81981 13.9701 3.29212C14.5042 2.76444 15.2286 2.468 15.9839 2.468C16.7392 2.468 17.4636 2.76444 17.9977 3.29212C18.5318 3.81981 18.8318 4.53552 18.8318 5.28178V8.92263H15.9787C15.2249 8.92155 14.5023 8.62516 13.9694 8.09845C13.4365 7.57174 13.1368 6.85773 13.136 6.11298V5.28178Z" fill="#E9272B"/>
<path d="M27.9778 32.4897H24.2668C24.0393 32.4897 23.8211 32.5791 23.6602 32.738C23.4993 32.897 23.4089 33.1126 23.4089 33.3374V37.8238C23.427 39.008 23.9159 40.1377 24.7699 40.9689C25.6238 41.8 26.7745 42.2658 27.9732 42.2658C29.1719 42.2658 30.3225 41.8 31.1765 40.9689C32.0305 40.1377 32.5194 39.008 32.5374 37.8238V36.9947C32.5347 35.8007 32.0534 34.6564 31.199 33.8122C30.3445 32.9679 29.1863 32.4925 27.9778 32.4897V32.4897ZM30.8216 37.8259C30.8216 38.5721 30.5216 39.2878 29.9875 39.8155C29.4534 40.3432 28.729 40.6397 27.9737 40.6397C27.2184 40.6397 26.494 40.3432 25.9599 39.8155C25.4258 39.2878 25.1258 38.5721 25.1258 37.8259V34.188H27.9778C28.7316 34.1889 29.4544 34.485 29.9875 35.0115C30.5206 35.5381 30.8205 36.2519 30.8216 36.9967V37.8259Z" fill="#E9272B"/>
<path d="M39.6511 22.3512H27.0515C25.9104 22.3512 24.816 22.7991 24.0091 23.5963C23.2023 24.3935 22.749 25.4747 22.749 26.6022C22.749 27.7296 23.2023 28.8108 24.0091 29.608C24.816 30.4052 25.9104 30.8531 27.0515 30.8531H29.6107C29.8382 30.8531 30.0564 30.7638 30.2173 30.6048C30.3782 30.4459 30.4686 30.2302 30.4686 30.0054C30.4686 29.7806 30.3782 29.5651 30.2173 29.4061C30.0564 29.2471 29.8382 29.1578 29.6107 29.1578H27.0515C26.3656 29.1578 25.7078 28.8886 25.2228 28.4094C24.7378 27.9302 24.4653 27.2803 24.4653 26.6027C24.4653 25.925 24.7378 25.2751 25.2228 24.7959C25.7078 24.3167 26.3656 24.0475 27.0515 24.0475H39.6511C40.337 24.0475 40.9948 24.3167 41.4798 24.7959C41.9648 25.2751 42.2372 25.925 42.2372 26.6027C42.2372 27.2803 41.9648 27.9302 41.4798 28.4094C40.9948 28.8886 40.337 29.1578 39.6511 29.1578H37.3713C37.1437 29.1578 36.9256 29.2471 36.7647 29.4061C36.6038 29.5651 36.5134 29.7806 36.5134 30.0054C36.5134 30.2302 36.6038 30.4459 36.7647 30.6048C36.9256 30.7638 37.1437 30.8531 37.3713 30.8531H39.6511C40.7922 30.8531 41.8865 30.4052 42.6934 29.608C43.5003 28.8108 43.9536 27.7296 43.9536 26.6022C43.9536 25.4747 43.5003 24.3935 42.6934 23.5963C41.8865 22.7991 40.7922 22.3512 39.6511 22.3512V22.3512Z" fill="#ADADAD"/>
<path d="M33.9833 29.2994C33.8357 29.2021 33.6612 29.1524 33.4838 29.1572C33.3064 29.162 33.1348 29.221 32.9928 29.3261C32.8507 29.4312 32.7452 29.5773 32.6907 29.7442C32.6362 29.911 32.6354 30.0905 32.6884 30.2578C32.7415 30.4252 32.8457 30.5721 32.9868 30.6784C33.1278 30.7848 33.2989 30.8453 33.4762 30.8516C33.6536 30.8579 33.8285 30.8097 33.977 30.7137C34.1255 30.6176 34.2402 30.4784 34.3053 30.3153C34.3754 30.1349 34.3818 29.9364 34.3233 29.752C34.2649 29.5676 34.145 29.4081 33.9833 29.2994V29.2994Z" fill="#ADADAD"/>
<path d="M27.0567 20.9073H27.065C28.2068 20.9062 29.3015 20.4577 30.109 19.66C30.9165 18.8624 31.3707 17.7809 31.3721 16.6528V4.2586C31.3721 3.12914 30.9181 2.04599 30.1097 1.24734C29.3014 0.448685 28.205 0 27.0619 0C25.9187 0 24.8223 0.448685 24.014 1.24734C23.2057 2.04599 22.7515 3.12914 22.7515 4.2586V16.6528C22.7529 17.7806 23.2069 18.8618 24.0139 19.6594C24.821 20.4569 25.9152 20.9057 27.0567 20.9073V20.9073ZM24.4674 4.2586C24.4973 3.59872 24.7836 2.97567 25.2668 2.51916C25.75 2.06265 26.3928 1.8079 27.0613 1.8079C27.7299 1.8079 28.3727 2.06265 28.8559 2.51916C29.3391 2.97567 29.6254 3.59872 29.6553 4.2586V16.6528C29.6534 17.3309 29.3798 17.9807 28.8944 18.4601C28.409 18.9394 27.7513 19.2095 27.065 19.2111H27.0567C26.3705 19.2092 25.713 18.939 25.2278 18.4597C24.7427 17.9803 24.4693 17.3307 24.4674 16.6528V4.2586Z" fill="#ADADAD"/>
</svg>
