<svg width="41" height="32" viewBox="0 0 41 32" fill="none" xmlns="http://www.w3.org/2000/svg">
<path d="M39.6931 19.3475C39.5325 19.3473 39.3786 19.2834 39.2651 19.1697C39.1516 19.056 39.0877 18.9019 39.0875 18.7411V12.2648C39.0875 12.104 39.1513 11.9498 39.2649 11.8361C39.3784 11.7223 39.5325 11.6584 39.6931 11.6584C39.8537 11.6584 40.0077 11.7223 40.1212 11.8361C40.2348 11.9498 40.2986 12.104 40.2986 12.2648V18.7411C40.2984 18.9019 40.2346 19.056 40.1211 19.1697C40.0075 19.2834 39.8536 19.3473 39.6931 19.3475V19.3475Z" fill="#ADADAD"/>
<path d="M26.5199 19.3475C26.3594 19.3473 26.2055 19.2834 26.0919 19.1697C25.9784 19.056 25.9146 18.9019 25.9144 18.7411V12.2648C25.9144 12.104 25.9782 11.9498 26.0917 11.8361C26.2053 11.7223 26.3593 11.6584 26.5199 11.6584C26.6805 11.6584 26.8345 11.7223 26.9481 11.8361C27.0617 11.9498 27.1255 12.104 27.1255 12.2648V18.7411C27.1253 18.9019 27.0614 19.056 26.9479 19.1697C26.8344 19.2834 26.6804 19.3473 26.5199 19.3475V19.3475Z" fill="#ADADAD"/>
<path d="M30.5734 19.3475C30.4128 19.3473 30.2589 19.2834 30.1454 19.1697C30.0319 19.056 29.968 18.9019 29.9678 18.7411V12.2648C29.968 12.1041 30.0319 11.9499 30.1454 11.8363C30.2589 11.7226 30.4128 11.6586 30.5734 11.6584H35.7476C35.9082 11.6586 36.0621 11.7226 36.1756 11.8363C36.2891 11.9499 36.353 12.1041 36.3532 12.2648V18.7411C36.353 18.9019 36.2891 19.056 36.1756 19.1697C36.0621 19.2834 35.9082 19.3473 35.7476 19.3475H30.5734ZM31.1789 18.1347H35.1414V12.8712H31.1796L31.1789 18.1347Z" fill="#ADADAD"/>
<path d="M39.9561 31.0055C39.7956 31.0053 39.6417 30.9413 39.5282 30.8276C39.4146 30.714 39.3508 30.5598 39.3506 30.3991V23.9228C39.3506 23.762 39.4144 23.6077 39.528 23.494C39.6415 23.3803 39.7955 23.3164 39.9561 23.3164C40.1167 23.3164 40.2708 23.3803 40.3843 23.494C40.4979 23.6077 40.5617 23.762 40.5617 23.9228V30.3991C40.5615 30.5598 40.4976 30.714 40.3841 30.8276C40.2706 30.9413 40.1167 31.0053 39.9561 31.0055Z" fill="#ADADAD"/>
<path d="M25.4005 7.68976C25.2399 7.68957 25.086 7.62563 24.9725 7.51194C24.859 7.39826 24.7951 7.24413 24.7949 7.08336V0.6064C24.7951 0.44563 24.859 0.291496 24.9725 0.177814C25.086 0.0641329 25.2399 0.000186833 25.4005 0H30.5747C30.7353 0.000186833 30.8892 0.0641329 31.0027 0.177814C31.1162 0.291496 31.1801 0.44563 31.1803 0.6064V7.08265C31.1801 7.24342 31.1162 7.39756 31.0027 7.51124C30.8892 7.62492 30.7353 7.68887 30.5747 7.68905L25.4005 7.68976ZM26.006 6.47696H29.9685V1.21279H26.006V6.47696Z" fill="#ADADAD"/>
<path d="M35.2216 31.0055C35.0611 31.0053 34.9071 30.9413 34.7936 30.8276C34.6801 30.714 34.6162 30.5598 34.6161 30.3991V23.9228C34.6161 23.762 34.6799 23.6077 34.7934 23.494C34.907 23.3803 35.061 23.3164 35.2216 23.3164C35.3822 23.3164 35.5362 23.3803 35.6498 23.494C35.7634 23.6077 35.8272 23.762 35.8272 23.9228V30.3991C35.827 30.5598 35.7631 30.714 35.6496 30.8276C35.5361 30.9413 35.3822 31.0053 35.2216 31.0055V31.0055Z" fill="#ADADAD"/>
<path d="M25.4005 31.0055C25.2399 31.0053 25.086 30.9413 24.9725 30.8276C24.859 30.714 24.7951 30.5598 24.7949 30.3991V23.9228C24.7951 23.762 24.859 23.6079 24.9725 23.4942C25.086 23.3805 25.2399 23.3166 25.4005 23.3164H30.5747C30.7353 23.3166 30.8892 23.3805 31.0027 23.4942C31.1162 23.6079 31.1801 23.762 31.1803 23.9228V30.3991C31.1801 30.5598 31.1162 30.714 31.0027 30.8276C30.8892 30.9413 30.7353 31.0053 30.5747 31.0055H25.4005ZM26.006 29.7927H29.9685V24.5292H26.006V29.7927Z" fill="#ADADAD"/>
<path d="M10.1857 30.8691C4.56943 30.8691 0 26.0306 0 20.0859C0 14.4561 4.1507 9.73054 9.44622 9.32816L9.91359 9.29287L10.0546 8.84389C10.7549 6.52901 12.104 4.46405 13.9416 2.89426C16.0121 1.12774 18.6404 0.152397 21.3604 0.141113C21.521 0.141484 21.675 0.20545 21.7887 0.319051C21.9024 0.432653 21.9666 0.586671 21.9674 0.747513C21.9672 0.923635 21.8973 1.09249 21.7729 1.21703C21.6485 1.34157 21.4799 1.41161 21.304 1.4118H20.6548C20.5429 1.41183 20.4312 1.41772 20.3199 1.42945L19.9611 1.46757C19.7206 1.49204 19.4816 1.52903 19.2449 1.5784C17.1991 2.04186 15.331 3.08831 13.8659 4.59148C12.4009 6.09465 11.4016 7.9903 10.9886 10.0496C10.9584 10.1841 10.8832 10.3041 10.7755 10.3899C10.6678 10.4757 10.5341 10.522 10.3965 10.5212H10.3767H10.2788C10.2477 10.5212 10.2167 10.5212 10.185 10.5212C5.23631 10.5212 1.21109 14.8154 1.21109 20.0937C1.21109 25.372 5.23701 29.6662 10.185 29.6662H20.7591V29.6344H21.3329C21.5009 29.6353 21.6618 29.7026 21.7805 29.8215C21.8993 29.9405 21.9665 30.1015 21.9674 30.2697C21.9672 30.4305 21.9033 30.5846 21.7898 30.6983C21.6763 30.812 21.5224 30.876 21.3618 30.8761L10.1857 30.8691Z" fill="#E9272B"/>
<path d="M35.0462 7.68976C34.8856 7.68957 34.7317 7.62563 34.6182 7.51194C34.5047 7.39826 34.4408 7.24413 34.4406 7.08336V0.6064C34.4406 0.445573 34.5044 0.291331 34.618 0.17761C34.7315 0.0638878 34.8856 0 35.0462 0C35.2068 0 35.3608 0.0638878 35.4743 0.17761C35.5879 0.291331 35.6517 0.445573 35.6517 0.6064V7.08265C35.6517 7.24354 35.5879 7.39786 35.4744 7.51169C35.3608 7.62552 35.2068 7.68957 35.0462 7.68976Z" fill="#ADADAD"/>
</svg>
