<svg width="46" height="46" viewBox="0 0 46 46" fill="none" xmlns="http://www.w3.org/2000/svg">
<path d="M36.0962 37.1637C35.9645 37.1636 35.8359 37.1243 35.727 37.0507C35.6182 36.9771 35.534 36.8727 35.4854 36.751C35.4369 36.6292 35.4262 36.4958 35.4547 36.368C35.4832 36.2401 35.5496 36.1237 35.6453 36.0338C36.093 35.6117 36.5186 35.1672 36.9209 34.7019C37.0355 34.5706 37.1979 34.4899 37.3723 34.4776C37.5467 34.4653 37.7188 34.5225 37.8508 34.6365C37.9829 34.7505 38.064 34.9121 38.0764 35.0856C38.0887 35.2592 38.0312 35.4304 37.9166 35.5618C37.4855 36.0604 37.0289 36.5368 36.5489 36.989C36.4262 37.1031 36.2641 37.1657 36.0962 37.1637V37.1637Z" fill="#ADADAD"/>
<path d="M26.3644 42.094C26.1997 42.0946 26.0406 42.0337 25.9188 41.9233C25.7971 41.8128 25.7214 41.661 25.7068 41.4977C25.6383 40.83 25.3232 40.2113 24.8226 39.7615C24.322 39.3116 23.6714 39.0625 22.9968 39.0625C22.3223 39.0625 21.6716 39.3116 21.171 39.7615C20.6703 40.2113 20.3553 40.83 20.2868 41.4977C20.2794 41.5833 20.2551 41.6666 20.2154 41.7429C20.1757 41.8192 20.1213 41.887 20.0552 41.9424C19.9892 41.9977 19.9129 42.0396 19.8306 42.0656C19.7483 42.0917 19.6616 42.1013 19.5756 42.094C19.5557 42.0926 19.536 42.0901 19.5164 42.0865C15.5832 41.3768 11.9616 39.4894 9.13544 36.6767C6.30932 33.864 4.41345 30.2599 3.70129 26.3464C3.67067 26.1756 3.70949 25.9997 3.80919 25.8574C3.9089 25.7151 4.06125 25.618 4.23289 25.5874C4.25276 25.5837 4.27292 25.5812 4.29309 25.58C4.97072 25.5226 5.6017 25.2131 6.06014 24.7133C6.51858 24.2135 6.77073 23.5602 6.76639 22.8835C6.76315 22.2086 6.50796 21.559 6.05039 21.0607C5.59282 20.5624 4.96553 20.2511 4.29023 20.1871C4.11663 20.1724 3.95596 20.0897 3.84359 19.9572C3.73122 19.8247 3.6764 19.6533 3.69097 19.4806C3.69254 19.4605 3.69528 19.4405 3.69934 19.4207C4.41133 15.5072 6.30732 11.9033 9.13372 9.09098C11.9601 6.27866 15.5822 4.392 19.5155 3.68336C19.6871 3.6529 19.8639 3.69152 20.007 3.79072C20.15 3.88992 20.2476 4.04162 20.2783 4.2124C20.2818 4.2322 20.2842 4.25213 20.2857 4.27218C20.3542 4.9399 20.6694 5.55857 21.1701 6.00842C21.6707 6.45827 22.3212 6.70734 22.9958 6.70734C23.6704 6.70734 24.321 6.45827 24.8217 6.00842C25.3223 5.55857 25.6374 4.9399 25.7059 4.27218C25.7131 4.18649 25.7372 4.10307 25.7769 4.02666C25.8165 3.95025 25.871 3.88235 25.9371 3.82689C26.0031 3.77142 26.0795 3.72945 26.1618 3.70338C26.2442 3.67731 26.331 3.66767 26.4171 3.67497C26.4368 3.67497 26.4575 3.67497 26.4762 3.68245C30.4101 4.39097 34.0327 6.27747 36.8598 9.08973C39.687 11.902 41.5839 15.506 42.297 19.4198C42.3276 19.5906 42.2888 19.7665 42.1891 19.9088C42.0894 20.0511 41.937 20.1482 41.7654 20.1787C41.7455 20.1824 41.7253 20.1849 41.7052 20.1862C41.0304 20.2508 40.4038 20.5625 39.9468 21.0607C39.4899 21.5589 39.2351 22.2081 39.2319 22.8826C39.2274 23.5598 39.4799 24.2136 39.9389 24.7135C40.398 25.2134 41.0298 25.5225 41.708 25.579C41.8816 25.5937 42.0423 25.6765 42.1547 25.8089C42.267 25.9414 42.3219 26.1129 42.3073 26.2856C42.3059 26.3054 42.3034 26.325 42.2999 26.3445C41.9766 28.1388 41.4014 29.879 40.5912 31.5139C40.5531 31.5912 40.5001 31.6602 40.4352 31.7171C40.3703 31.774 40.2948 31.8176 40.213 31.8455C40.1312 31.8734 40.0446 31.8849 39.9583 31.8795C39.872 31.8741 39.7877 31.8518 39.7101 31.8139C39.6324 31.7761 39.5629 31.7234 39.5057 31.6588C39.4485 31.5943 39.4047 31.5191 39.3767 31.4377C39.3487 31.3563 39.3371 31.2703 39.3425 31.1844C39.348 31.0985 39.3704 31.0145 39.4085 30.9373C40.0668 29.6069 40.5589 28.2013 40.8738 26.752C40.0225 26.5174 39.272 26.0116 38.7372 25.312C38.2024 24.6125 37.9127 23.7578 37.9127 22.8789C37.9127 21.9999 38.2024 21.1452 38.7372 20.4457C39.272 19.7462 40.0225 19.2404 40.8738 19.0058C40.1253 15.5991 38.4104 12.4776 35.9323 10.0117C33.4542 7.54577 30.3171 5.83894 26.8933 5.09375C26.6575 5.94079 26.1491 6.68759 25.4461 7.21972C24.743 7.75185 23.8839 8.03998 23.0005 8.03998C22.1171 8.03998 21.2582 7.75185 20.5551 7.21972C19.852 6.68759 19.3436 5.94079 19.1078 5.09375C15.6833 5.83883 12.5456 7.5459 10.0671 10.0124C7.58866 12.4789 5.87352 15.6011 5.12536 19.0086C5.9767 19.2432 6.72727 19.749 7.2621 20.4485C7.79693 21.148 8.08645 22.0027 8.08645 22.8817C8.08645 23.7606 7.79693 24.6153 7.2621 25.3148C6.72727 26.0144 5.9767 26.5202 5.12536 26.7548C5.8735 30.1626 7.58875 33.2852 10.0676 35.7519C12.5464 38.2186 15.6847 39.9257 19.1097 40.6705C19.3455 39.8235 19.8538 39.0767 20.5569 38.5446C21.26 38.0124 22.1191 37.7243 23.0025 37.7243C23.8858 37.7243 24.7448 38.0124 25.4479 38.5446C26.151 39.0767 26.6593 39.8235 26.8951 40.6705C28.7041 40.2849 30.4422 39.6227 32.0475 38.7078C32.197 38.618 32.3763 38.5911 32.5458 38.6328C32.7152 38.6745 32.8611 38.7815 32.9512 38.9303C33.0414 39.079 33.0685 39.2572 33.0266 39.4259C32.9847 39.5945 32.8771 39.7396 32.7276 39.8293L32.7005 39.8443C30.7735 40.944 28.6695 41.703 26.4819 42.0874C26.443 42.0933 26.4037 42.0955 26.3644 42.094Z" fill="#ADADAD"/>
<path d="M22.9996 8.04067C21.9898 8.04674 21.0149 7.67349 20.2698 6.99548C19.5246 6.31748 19.0639 5.38463 18.98 4.38343C18.9649 4.26251 18.9578 4.1408 18.9584 4.01896C18.9584 2.95308 19.3839 1.93083 20.1415 1.17713C20.899 0.423439 21.9265 0 22.9977 0C24.069 0 25.0964 0.423439 25.8539 1.17713C26.6114 1.93083 27.0369 2.95308 27.0369 4.01896C27.0372 4.14836 27.0287 4.27763 27.0116 4.4059C26.9241 5.40244 26.4627 6.32963 25.7193 7.00312C24.9759 7.67662 24.005 8.04705 22.9996 8.04067ZM22.9996 1.30571C22.2777 1.30769 21.5859 1.59385 21.0754 2.10172C20.565 2.6096 20.2774 3.29787 20.2754 4.01611C20.2761 4.09235 20.2812 4.1685 20.2904 4.24418C20.3517 4.91594 20.6625 5.54086 21.1621 5.99679C21.6617 6.45272 22.3142 6.70688 22.9921 6.70968C23.67 6.71249 24.3247 6.46369 24.8281 6.0119C25.3315 5.56012 25.6475 4.93782 25.7144 4.2666C25.7251 4.18352 25.7307 4.09987 25.7312 4.01611C25.7297 3.29772 25.4423 2.6092 24.9317 2.10121C24.4212 1.59323 23.7291 1.30719 23.007 1.30571H22.9996Z" fill="#ADADAD"/>
<path d="M22.9994 45.77C21.9286 45.7685 20.9021 45.3446 20.1449 44.5912C19.3877 43.8378 18.9616 42.8165 18.9601 41.751C18.9597 41.6216 18.9683 41.4924 18.9856 41.3641C19.0905 40.3748 19.5604 39.4593 20.3045 38.7948C21.0486 38.1303 22.014 37.7641 23.0139 37.7669C24.0138 37.7697 24.977 38.1413 25.7173 38.8099C26.4577 39.4786 26.9225 40.3967 27.0218 41.3866C27.0368 41.5075 27.044 41.6292 27.0434 41.751C27.0416 42.8164 26.6155 43.8377 25.8584 44.591C25.1012 45.3443 24.0749 45.7683 23.0042 45.77H22.9994ZM22.9994 39.035C22.3188 39.0308 21.6615 39.2822 21.1591 39.7392C20.6567 40.1961 20.3461 40.8248 20.2894 41.4996C20.2783 41.5824 20.2723 41.6657 20.2715 41.7492C20.2715 42.4689 20.5589 43.1591 21.0704 43.668C21.5819 44.177 22.2756 44.4629 22.999 44.4629C23.7224 44.4629 24.4161 44.177 24.9276 43.668C25.4391 43.1591 25.7264 42.4689 25.7264 41.7492C25.7263 41.673 25.7216 41.5968 25.7123 41.5211C25.6592 40.8425 25.35 40.209 24.8468 39.7478C24.3435 39.2867 23.6836 39.032 22.9994 39.035Z" fill="#ADADAD"/>
<path d="M41.9598 26.9043C41.8279 26.9045 41.696 26.8961 41.5652 26.8791C40.5745 26.7698 39.6593 26.3 38.9958 25.5599C38.3323 24.8199 37.9672 23.8618 37.9708 22.87C37.9744 21.8783 38.3465 20.9229 39.0154 20.1876C39.6843 19.4523 40.6028 18.9891 41.5943 18.887C41.7158 18.8712 41.8382 18.8637 41.9607 18.8646C43.032 18.8646 44.0594 19.288 44.8169 20.0417C45.5744 20.7954 46 21.8177 46 22.8835C46 23.9494 45.5744 24.9716 44.8169 25.7253C44.0594 26.479 43.032 26.9024 41.9607 26.9024V26.9024L41.9598 26.9043ZM41.9598 20.1694C41.8857 20.1701 41.8115 20.1751 41.738 20.1843C41.0576 20.243 40.4237 20.5522 39.9603 21.0514C39.4969 21.5506 39.2374 22.204 39.2327 22.8835C39.228 23.5608 39.4804 24.2149 39.9395 24.715C40.3986 25.2151 41.0305 25.5244 41.7089 25.5809C41.7924 25.5915 41.8765 25.5971 41.9607 25.5977C42.6842 25.5977 43.3781 25.3117 43.8897 24.8027C44.4012 24.2937 44.6886 23.6034 44.6886 22.8835C44.6886 22.1637 44.4012 21.4733 43.8897 20.9643C43.3781 20.4553 42.6842 20.1694 41.9607 20.1694H41.9598Z" fill="#ADADAD"/>
<path d="M4.03932 26.9053C2.96804 26.9053 1.94066 26.4819 1.18315 25.7282C0.425641 24.9745 0 23.9522 0 22.8863C0 21.8205 0.425641 20.7983 1.18315 20.0446C1.94066 19.2909 2.96804 18.8674 4.03932 18.8674C4.17124 18.8677 4.30305 18.8761 4.4339 18.8927C5.42818 18.9979 6.34783 19.4662 7.0151 20.2071C7.68236 20.948 8.04982 21.9088 8.0462 22.9036C8.04258 23.8985 7.66813 24.8566 6.99549 25.5927C6.32285 26.3288 5.39979 26.7905 4.40477 26.8885C4.28346 26.9019 4.16137 26.9075 4.03932 26.9053V26.9053ZM4.03932 20.1703C3.31583 20.1703 2.62195 20.4563 2.11037 20.9653C1.59878 21.4743 1.31147 22.1647 1.31147 22.8845C1.31147 23.6044 1.59878 24.2947 2.11037 24.8037C2.62195 25.3127 3.31583 25.5987 4.03932 25.5987V25.5987C4.11345 25.5987 4.18746 25.594 4.26098 25.5846C4.9353 25.5235 5.56263 25.2148 6.02057 24.7185C6.47852 24.2223 6.7343 23.5741 6.73806 22.9004C6.74181 22.2267 6.49326 21.5758 6.04087 21.0745C5.58848 20.5732 4.96474 20.2575 4.29114 20.189C4.20767 20.1778 4.12354 20.1716 4.03932 20.1703V20.1703Z" fill="#ADADAD"/>
<path d="M22.9995 35.9609C20.3999 35.9609 17.8587 35.1939 15.6973 33.757C13.5358 32.32 11.8511 30.2776 10.8563 27.888C9.8615 25.4984 9.60129 22.869 10.1084 20.3322C10.6156 17.7955 11.8673 15.4653 13.7055 13.6364C15.5437 11.8075 17.8857 10.562 20.4353 10.0574C22.9849 9.55285 25.6277 9.8118 28.0293 10.8016C30.431 11.7914 32.4838 13.4676 33.928 15.6181C35.3723 17.7687 36.1431 20.2971 36.1431 22.8835C36.1431 26.3519 34.7583 29.6781 32.2934 32.1306C29.8285 34.5831 26.4854 35.9609 22.9995 35.9609ZM22.9995 11.1137C20.6599 11.1137 18.3727 11.804 16.4274 13.0973C14.482 14.3906 12.9659 16.2287 12.0705 18.3794C11.1752 20.5301 10.9409 22.8966 11.3973 25.1797C11.8538 27.4629 12.9804 29.56 14.6348 31.2061C16.2891 32.8521 18.397 33.973 20.6917 34.4272C22.9864 34.8813 25.3649 34.6483 27.5264 33.7574C29.688 32.8666 31.5355 31.358 32.8353 29.4225C34.1352 27.4869 34.829 25.2114 34.829 22.8835C34.8287 19.7621 33.5823 16.7685 31.3639 14.5613C29.1455 12.3541 26.1368 11.1139 22.9995 11.1137Z" fill="#E9272B"/>
<path d="M22.9995 35.9609C19.3736 35.9609 16.533 30.2167 16.533 22.8835C16.533 15.5504 19.3736 9.80615 22.9995 9.80615C26.6255 9.80615 29.4661 15.5504 29.4661 22.8835C29.4661 30.2167 26.6245 35.9609 22.9995 35.9609ZM22.9995 11.1137C20.2068 11.1137 17.8471 16.5037 17.8471 22.8835C17.8471 29.2633 20.2068 34.6534 22.9995 34.6534C25.7922 34.6534 28.1519 29.2624 28.1519 22.8835C28.1519 16.5047 25.7922 11.1137 22.9995 11.1137V11.1137Z" fill="#E9272B"/>
<path d="M35.4827 23.5377H10.5097C10.3353 23.5377 10.168 23.4688 10.0447 23.3461C9.92138 23.2234 9.85205 23.057 9.85205 22.8835C9.85205 22.71 9.92138 22.5436 10.0447 22.4209C10.168 22.2982 10.3353 22.2292 10.5097 22.2292H35.4827C35.6571 22.2292 35.8244 22.2982 35.9477 22.4209C36.071 22.5436 36.1403 22.71 36.1403 22.8835C36.1403 23.057 36.071 23.2234 35.9477 23.3461C35.8244 23.4688 35.6571 23.5377 35.4827 23.5377Z" fill="#E9272B"/>
<path d="M34.0089 17.6637H11.9976C11.8232 17.6637 11.6559 17.5948 11.5326 17.4721C11.4093 17.3494 11.3401 17.183 11.3401 17.0095C11.3401 16.836 11.4093 16.6695 11.5326 16.5468C11.6559 16.4241 11.8232 16.3552 11.9976 16.3552H34.0089C34.1833 16.3552 34.3505 16.4241 34.4738 16.5468C34.5972 16.6695 34.6664 16.836 34.6664 17.0095C34.6664 17.183 34.5972 17.3494 34.4738 17.4721C34.3505 17.5948 34.1833 17.6637 34.0089 17.6637Z" fill="#E9272B"/>
<path d="M34.0089 29.411H11.9976C11.8232 29.411 11.6559 29.3421 11.5326 29.2194C11.4093 29.0967 11.3401 28.9303 11.3401 28.7567C11.3401 28.5832 11.4093 28.4168 11.5326 28.2942C11.6559 28.1715 11.8232 28.1025 11.9976 28.1025H34.0089C34.0952 28.1025 34.1807 28.1195 34.2604 28.1523C34.3402 28.1852 34.4128 28.2334 34.4738 28.2942C34.5349 28.3549 34.5833 28.427 34.6164 28.5064C34.6494 28.5858 34.6664 28.6708 34.6664 28.7567C34.6664 28.8427 34.6494 28.9277 34.6164 29.0071C34.5833 29.0865 34.5349 29.1586 34.4738 29.2194C34.4128 29.2801 34.3402 29.3283 34.2604 29.3612C34.1807 29.3941 34.0952 29.411 34.0089 29.411Z" fill="#E9272B"/>
</svg>
