<svg width="198" height="244" viewBox="0 0 198 244" fill="none" xmlns="http://www.w3.org/2000/svg">
<ellipse cx="103.902" cy="119.866" rx="93.4552" ry="93.8953" fill="white"/>
<path d="M111.57 98.8044C111.57 98.8044 65.7642 105.477 63.0748 128.697C58.1834 171.005 0.504639 190.973 0.504639 190.973L20.5597 196.312C26.5402 197.902 32.2532 200.373 37.5129 203.645C42.2281 206.625 46.2526 210.586 49.3151 215.26L56.2019 225.625C56.2019 225.625 59.1647 214.699 75.3215 187.827C102.69 142.303 111.569 98.8074 111.569 98.8074" fill="#CE1927"/>
<path opacity="0.88" d="M70.0403 184.907C59.7742 192.792 46.94 197.709 38.4952 200.347C41.1796 202.374 45.7231 205.905 47.3059 207.749C49.692 210.53 55.2137 220.657 55.2137 220.657C55.2137 220.657 60.3926 203.477 75.9697 183.914C81.0491 177.532 86.2856 167.664 91.0418 157.26C84.1053 168.992 76.4897 179.95 70.0403 184.907Z" fill="#ED1C24"/>
<path d="M103.571 0.132454C95.8876 1.2582 97.4912 8.02367 98.3562 14.003L112.507 11.9303C111.638 5.95397 111.25 -0.989295 103.571 0.132454Z" fill="#303639"/>
<path opacity="0.5" d="M112.506 11.9253L98.3602 13.999L98.2856 13.4876L110.415 11.7006C109.703 6.76108 109.305 1.16133 104.862 0.00361991C111.3 -0.175181 111.691 6.30359 112.506 11.9253Z" fill="#303639"/>
<path d="M100.426 1.72869C98.2637 3.57963 97.9406 7.80389 98.8354 10.9184C99.3047 12.5376 101.133 11.5547 100.668 9.94252C100.071 7.88082 100.369 5.02499 101.761 3.83133C102.819 2.92933 101.479 0.828695 100.426 1.72869Z" fill="#303639"/>
<path d="M131.686 15.9638C129.836 12.3039 125.038 10.2921 119.09 9.60889C118.333 9.509 117.553 9.44807 116.76 9.41611C109.584 8.86816 102.389 10.1922 95.8727 13.2598C95.1042 13.5924 94.3605 13.9461 93.6496 14.3067C93.2937 14.4964 92.9378 14.6892 92.5829 14.882C93.1969 16.5373 93.4751 18.2993 93.4011 20.0642C92.9086 41.8795 94.7381 63.6851 98.8583 85.1097C99.7471 89.7915 100.402 89.7345 100.722 89.1302C101.029 87.6608 101.007 88.6008 100.722 89.1302C100.594 89.7595 100.406 90.8203 100.15 92.5544C100.086 93.043 99.9665 93.5226 99.7938 93.9838C111.724 97.5009 138.211 90.4457 141.413 84.3345C143.043 81.229 143.284 74.1629 142.662 65.3557C142.644 65.084 142.619 64.8163 142.605 64.5476C140.92 42.4273 136.122 24.717 131.686 15.9638Z" fill="#ED1C24"/>
<path d="M100.71 89.1082C100.389 89.7076 99.7352 89.7695 98.8454 85.0877C94.7228 63.6697 92.8969 41.8693 93.3991 20.0603C93.4765 18.2961 93.202 16.5341 92.5918 14.8781C88.6786 17.0756 85.7865 19.7846 84.7665 22.8412C81.5652 32.4654 84.4105 50.764 89.3398 72.315C89.3965 72.5757 89.4571 72.8404 89.5178 73.1051C91.368 81.1182 93.1854 87.4291 94.5475 90.221C95.4154 92.008 97.2825 93.2057 99.7869 93.9449C99.9596 93.4837 100.079 93.004 100.143 92.5155C100.394 90.7884 100.581 89.7375 100.71 89.1082Z" fill="#ED1C24"/>
<path d="M110.414 62.8566C110.77 65.2729 109.593 67.4414 107.792 67.7061L103.236 68.3744C101.436 68.6391 100.148 66.5874 99.3445 64.4788C98.0673 59.5468 97.3338 54.4887 97.1572 49.3956C97.2994 46.0823 97.9795 44.8067 99.779 44.546L104.335 43.8778C106.135 43.613 107.893 45.3571 108.227 47.7734L110.414 62.8566Z" fill="#303639"/>
<g opacity="0.5">
<path opacity="0.5" d="M99.3444 64.4807C100.152 66.5934 101.432 68.6411 103.236 68.3764L107.792 67.7081C109.592 67.4474 110.766 65.2738 110.414 62.8615L110.314 62.1463C110.12 62.5788 109.824 62.9576 109.452 63.2506C109.081 63.5436 108.644 63.7422 108.18 63.8294L103.626 64.4977C101.823 64.7584 100.538 62.7107 99.7133 60.602C98.545 56.0241 97.8126 51.3449 97.526 46.6276C97.2945 47.5308 97.168 48.458 97.1492 49.3905C97.3285 54.4862 98.0646 59.5467 99.3444 64.4807Z" fill="#303639"/>
</g>
<path d="M100.308 45.3351C100.745 44.7667 101.559 45.0274 101.955 45.6677C102.159 46.0022 102.258 46.3902 102.24 46.7818C102.222 47.1733 102.089 47.5507 101.856 47.8653C101.319 48.7484 101.124 49.7988 101.308 50.817C101.56 52.8287 99.2768 53.1683 99.0213 51.1496C98.6761 49.1169 99.138 47.0294 100.308 45.3351Z" fill="#303639"/>
<path d="M88.0393 57.3467C86.548 41.3745 88.3555 26.4751 92.5282 14.91C88.6398 17.1006 85.7676 19.7996 84.7525 22.8402C81.5512 32.4644 84.3966 50.763 89.3258 72.314C89.3825 72.5747 89.4432 72.8394 89.5038 73.1041C91.354 81.1172 93.1714 87.4282 94.5334 90.22C95.2196 91.4995 96.3093 92.5139 97.6314 93.1038C92.7817 83.2828 89.3059 70.9575 88.0393 57.3467Z" fill="#FF4351"/>
<path opacity="0.12" d="M144.996 84.7991L127.566 86.3683C125.363 86.5706 123.168 85.9062 121.444 84.5149C119.719 83.1236 118.599 81.1141 118.32 78.9097C118.32 78.9097 114.528 58.5563 113.647 51.669C112.836 45.3401 111.537 26.0476 111.537 26.0476C111.378 24.8003 111.51 23.5328 111.923 22.3458C112.337 21.1588 113.02 20.0851 113.919 19.21C114.818 18.3349 115.908 17.6827 117.101 17.305C118.295 16.9274 119.561 16.8348 120.796 17.0347L135.324 19.432C136.375 19.6054 137.347 20.1009 138.107 20.8506C138.868 21.6003 139.379 22.5676 139.571 23.6203L149.612 78.6869C149.742 79.3967 149.723 80.1259 149.557 80.828C149.391 81.5301 149.081 82.1897 148.646 82.7646C148.212 83.3396 147.664 83.8174 147.036 84.1675C146.407 84.5176 145.714 84.7324 144.998 84.7981L144.996 84.7991Z" fill="#38CE8B"/>
<path opacity="0.22" d="M86.9328 103.895C86.9328 103.895 89.2195 99.1381 96.3519 96.3892C103.484 93.6403 121.505 86.6391 121.505 86.6391C121.505 86.6391 142.991 84.6303 144.364 85.5852C145.737 86.5402 156.305 97.6188 156.305 97.6188L86.9328 103.895Z" fill="#38CE8B"/>
<path d="M119.343 38.4337C117.255 39.0021 116.284 42.0866 117.156 45.326C118.027 48.5654 120.429 50.733 122.509 50.1646C124.59 49.5963 125.565 46.5087 124.697 43.2563C123.829 40.004 121.424 37.8654 119.343 38.4337Z" fill="#37323F"/>
<path d="M137.324 42.4114C138.199 45.6498 137.225 48.7373 135.137 49.3037C133.049 49.87 130.663 47.7055 129.801 44.4651C128.939 41.2247 129.9 38.1392 131.981 37.5728C134.062 37.0064 136.442 39.17 137.324 42.4114Z" fill="#37323F"/>
<path d="M132.074 65.988C131.875 66.042 131.668 66.0879 131.465 66.1199C128.264 66.6743 124.095 64.7584 122.547 59.2506C122.348 58.5353 122.547 57.8391 123.013 57.7033C123.48 57.5674 124.008 58.0359 124.206 58.7541C125.3 62.6278 128.336 63.9253 130.862 63.4898C133.501 63.0363 135.991 60.5841 135.236 56.2739C135.108 55.5417 135.396 54.9234 135.88 54.9054C136.365 54.8874 136.863 55.4488 136.994 56.178C137.986 61.8137 135.232 65.124 132.074 65.988Z" fill="#37323F"/>
<path d="M121.648 43.1794C119.592 43.7438 118.248 38.7723 120.307 38.212C122.366 37.6516 123.707 42.618 121.648 43.1794Z" fill="white"/>
<path d="M134.532 42.69C132.472 43.2543 131.128 38.2829 133.187 37.7225C135.246 37.1622 136.588 42.1286 134.532 42.69Z" fill="white"/>
<path d="M144.726 112.46C143.975 112.111 143.123 112.052 142.332 112.295C141.238 112.06 140.503 113.321 140.49 113.332C138.479 115.119 137.757 118.232 138.882 120.312C140.006 122.393 142.546 122.636 144.556 120.859C144.603 120.82 144.644 120.777 144.687 120.734L144.716 120.784C160.894 118.447 174.831 87.1674 173.141 70.7237L171.007 70.5669L167.427 70.2912C170.324 82.0281 155.774 111.695 144.726 112.46Z" fill="#B5B1AF"/>
<path d="M167.428 70.2883C170.83 84.0799 149.461 113.357 140.874 112.897L144.713 120.788C160.898 118.447 174.837 87.1644 173.134 70.7527L167.428 70.2883Z" fill="#B5B1AF"/>
<path opacity="0.5" d="M171 70.5669L167.421 70.2912C170.829 84.0828 150.666 111.874 141.77 113.021L141.294 114.686C141.581 115.223 141.972 115.699 142.442 116.084C142.913 116.47 143.455 116.758 144.037 116.933C144.619 117.108 145.229 117.165 145.834 117.102C146.438 117.039 147.024 116.857 147.557 116.566C159.919 110.696 170.413 84.1797 171 70.5669Z" fill="#B5B1AF"/>
<path d="M165.375 60.4672C165.375 60.4672 167.605 60.1096 169.843 59.9778C168.844 62.7047 168.065 68.8678 171.622 68.5082C176.852 67.9828 176.304 62.1863 175.389 59.2695C176.566 59.3694 179.017 59.5023 179.017 59.5023C182.051 64.7384 178.938 71.7576 172.08 73.169C158.076 76.0408 165.375 60.4672 165.375 60.4672Z" fill="#ED1C24"/>
<path opacity="0.5" d="M170.132 68.2725H170.271C168.303 67.0858 168.997 62.3181 169.84 60.0057C169.3 60.0377 168.752 60.0806 168.236 60.1276C167.311 62.9754 166.724 68.5971 170.132 68.2725ZM172.07 73.179C170.323 73.6297 168.493 73.6544 166.734 73.2509C168.029 73.3179 169.326 73.206 170.59 72.9183C177.38 71.5199 180.486 64.6415 177.619 59.4333L179.017 59.5083C182.04 64.7404 178.931 71.7556 172.069 73.168L172.07 73.179Z" fill="#ED1C24"/>
<path d="M153.157 117.623C150.688 117.702 149.119 113.735 148.995 111.315M167.112 76.8999C167.894 77.5655 168.864 77.9674 169.885 78.0487C170.907 78.1301 171.928 77.8869 172.804 77.3534L167.112 76.8999ZM172.16 83.9111C170.232 84.4834 167.347 84.4794 166.554 82.5995L172.16 83.9111ZM157.835 113.693C155.836 113.421 152.991 111.627 152.461 109.311L157.835 113.693Z" stroke="#4E5265" stroke-miterlimit="10" stroke-linecap="round"/>
<path d="M155.22 106.295C156.45 109.201 159.844 109.869 162.765 107.764C165.686 105.66 167.08 101.606 165.853 98.7005C164.626 95.7948 161.247 95.1265 158.308 97.2282C155.369 99.3298 153.993 103.386 155.22 106.295Z" fill="#303639"/>
<path opacity="0.5" d="M165.853 98.6966C164.622 95.7878 161.247 95.1226 158.308 97.2242C157.116 98.075 156.168 99.2262 155.56 100.562C154.952 101.897 154.705 103.371 154.843 104.833C155.43 103.222 156.482 101.823 157.863 100.815C160.801 98.7245 164.178 99.3858 165.411 102.288C165.607 102.75 165.735 103.239 165.792 103.739C166.446 102.126 166.467 100.325 165.853 98.6966Z" fill="#303639"/>
<path d="M160.576 107.316C157.892 108.592 157.04 104.17 159.722 102.895C162.405 101.619 163.259 106.045 160.576 107.316Z" fill="#303639"/>
<path d="M137.922 119.932C138.102 120.463 138.408 120.942 138.812 121.329C139.217 121.716 139.709 121.999 140.246 122.154C140.782 122.309 141.349 122.332 141.896 122.22C142.443 122.108 142.956 121.865 143.39 121.511C144.404 120.712 145.136 119.608 145.48 118.36C145.823 117.112 145.76 115.787 145.299 114.578C145.117 114.048 144.811 113.57 144.406 113.184C144.001 112.798 143.51 112.516 142.974 112.361C142.438 112.205 141.873 112.182 141.326 112.292C140.779 112.403 140.266 112.644 139.831 112.995C138.817 113.794 138.084 114.899 137.74 116.147C137.396 117.396 137.46 118.722 137.922 119.932Z" fill="#303639"/>
<path d="M140.034 121.048C138.479 121.809 137.854 118.628 139.408 117.863C140.962 117.098 141.588 120.283 140.034 121.048Z" fill="#303639"/>
<path d="M95.9691 196.612L91.5071 211.33L98.6696 213.522L103.132 198.804L95.9691 196.612Z" fill="#B5B1AF"/>
<path d="M95.9679 196.611L91.5071 211.326L98.6734 213.519L103.134 198.805L95.9679 196.611Z" fill="#B5B1AF"/>
<path opacity="0.5" d="M99.3379 198.223L95.0375 212.408L98.6715 213.52L102.972 199.335L99.3379 198.223Z" fill="#B5B1AF"/>
<path d="M92.8593 243.109C89.5476 245.306 81.3484 243.276 78.4741 238.706C75.5999 234.135 83.2652 209.821 87.3354 205.607C90.9424 201.87 102.254 203.72 103.869 209.703C105.812 216.879 96.168 240.91 92.8593 243.109Z" fill="#2E3639"/>
<path opacity="0.5" d="M92.8602 243.105C90.673 244.566 86.3363 244.176 82.8288 242.389C84.5828 242.711 86.3936 242.43 87.9688 241.59C91.2765 239.4 100.917 215.373 98.9785 208.185C98.6616 207.22 98.1507 206.331 97.4775 205.573C96.8044 204.815 95.9834 204.204 95.0654 203.777C99.0064 204.264 102.98 206.315 103.88 209.682C105.808 216.886 96.1709 240.913 92.8602 243.105Z" fill="#2E3639"/>
<path d="M78.4602 231.786C82.956 235.682 91.9167 237.922 96.5547 237.772M85.3719 209.152C89.8786 209.631 101.059 211.576 103.688 216.25L85.3719 209.152ZM82.0145 217.179C87.2509 220.35 95.1757 222.751 101.323 223.612L82.0145 217.179ZM80.1404 224.127C84.9066 228.215 94.4967 230.503 99.7043 230.202L80.1404 224.127Z" stroke="#4E5265" stroke-miterlimit="10" stroke-linecap="round"/>
<path d="M88.7313 207.705C85.53 215.046 82.5096 222.376 80.9308 230.257C80.4218 232.798 84.3847 234.035 84.8967 231.472C86.4765 223.588 89.5028 216.261 92.6972 208.921C93.7352 206.529 89.7583 205.34 88.7313 207.705Z" fill="#2E3639"/>
<path d="M113.047 177.809C115.664 178.608 116.796 182.534 115.572 186.573L112.463 196.815C112.033 198.387 111.137 199.789 109.893 200.837C108.65 201.884 107.119 202.525 105.504 202.677C102.819 203.045 92.2279 200.114 89.1409 197.673C86.0539 195.232 85.3948 192.948 86.6186 188.91L89.7246 178.667C90.9484 174.629 94.0643 172.002 96.684 172.806L113.047 177.809Z" fill="#303639"/>
<g opacity="0.5">
<path opacity="0.5" d="M115.564 186.57L112.46 196.814C112.028 198.384 111.132 199.785 109.89 200.832C108.648 201.878 107.119 202.521 105.506 202.676C102.821 203.047 92.2339 200.109 89.1429 197.672C87.8519 196.78 86.8648 195.511 86.3154 194.037C86.5818 194.277 86.8632 194.52 87.1694 194.752C90.2425 197.204 100.822 200.134 103.532 199.756C105.148 199.607 106.68 198.966 107.924 197.918C109.167 196.871 110.063 195.467 110.491 193.894L113.597 183.652C114.177 181.868 114.246 179.956 113.796 178.134C115.867 179.421 116.667 182.946 115.564 186.57Z" fill="#303639"/>
</g>
<path d="M116.987 191.884C119.286 190.334 121.439 188.575 123.418 186.629C123.418 186.629 112.313 167.812 116.382 153.766C120.451 139.72 129.878 116.372 129.878 116.372C129.878 116.372 129.633 107.981 125.293 107.044C121.736 106.286 114.362 101.294 111.772 99.4817C107.859 99.4497 107.205 100.58 103.981 102.026C103.919 102.047 103.859 102.072 103.8 102.101C92.6773 107.308 81.3403 134.777 77.9362 156.224C76.2003 167.268 75.6595 175.581 77.0613 179.852C78.1003 182.993 75.9945 185.313 80.1433 187.75L94.2223 187.686C94.2223 187.686 113.146 194.479 116.987 191.884Z" fill="#ED1C24"/>
<path opacity="0.5" d="M124.109 196.28C130.472 194.582 136.064 186.019 140.437 175.003C148.391 154.961 150.816 126.702 147.281 116.823C147.231 116.695 147.182 116.566 147.117 116.438C145.374 112.431 139.729 107.799 130.042 103.235C126.012 101.338 123.821 100.166 122.693 99.4757C122.512 99.9831 120.68 100.398 113.8 99.6754C113.113 99.6005 112.445 99.5396 111.78 99.4827C114.384 101.295 121.772 106.275 125.301 107.045C129.641 107.978 129.886 116.373 129.886 116.373C129.886 116.373 120.456 139.718 116.39 153.767C112.324 167.816 123.426 186.63 123.426 186.63C121.447 188.576 119.294 190.335 116.995 191.885C113.149 194.482 94.2273 187.689 94.2273 187.689L80.1483 187.753C92.5679 195.033 115.017 198.742 124.109 196.28Z" fill="#D3263B"/>
<path d="M124.109 196.28C130.472 194.582 136.064 186.019 140.437 175.003C148.391 154.961 150.816 126.702 147.281 116.823C147.231 116.695 147.182 116.566 147.117 116.438C145.374 112.431 139.729 107.799 130.042 103.235C126.012 101.338 123.821 100.166 122.693 99.4757C122.512 99.9831 120.68 100.398 113.8 99.6754C113.113 99.6005 112.445 99.5396 111.78 99.4827C114.384 101.295 121.772 106.275 125.301 107.045C129.641 107.978 129.886 116.373 129.886 116.373C129.886 116.373 120.456 139.718 116.39 153.767C112.324 167.816 123.426 186.63 123.426 186.63C121.447 188.576 119.294 190.335 116.995 191.885C113.149 194.482 94.2273 187.689 94.2273 187.689L80.1483 187.753C92.5679 195.033 115.017 198.742 124.109 196.28Z" fill="#ED1C24"/>
<path opacity="0.5" d="M124.109 196.28C130.472 194.582 136.064 186.019 140.437 175.003C148.391 154.961 150.816 126.702 147.281 116.823C147.231 116.695 147.182 116.566 147.117 116.438C145.374 112.431 139.729 107.799 130.042 103.235C126.012 101.338 123.821 100.166 122.693 99.4757C122.512 99.9831 120.68 100.398 113.8 99.6754C113.113 99.6005 112.445 99.5396 111.78 99.4827C114.384 101.295 121.772 106.275 125.301 107.045C129.641 107.978 129.886 116.373 129.886 116.373C129.886 116.373 120.456 139.718 116.39 153.767C112.324 167.816 123.426 186.63 123.426 186.63C121.447 188.576 119.294 190.335 116.995 191.885C113.149 194.482 94.2273 187.689 94.2273 187.689L80.1483 187.753C92.5679 195.033 115.017 198.742 124.109 196.28Z" fill="#D3263B"/>
<path d="M122.387 171.908L122.373 135.74L117.633 151.369L117.315 178.513L122.387 171.908Z" fill="#F4E5D2"/>
<path d="M137.324 152.474L140.469 110.784L136.79 112.282L133.845 150.112L133.945 147.668L127.62 122.372L123.65 131.543L131.582 159.945L137.324 152.474Z" fill="#F4E5D2"/>
<path d="M147.198 132.341L143.901 111.92L142.332 111.355L141.934 139.196L147.198 132.341Z" fill="#F4E5D2"/>
<path d="M103.197 104.828C94.1229 116.693 87.7301 130.979 86.5281 145.928C86.4925 146.251 86.5225 146.579 86.6164 146.89C86.7103 147.202 86.8661 147.491 87.0744 147.74C87.2827 147.99 87.5392 148.194 87.8282 148.341C88.1173 148.488 88.4331 148.574 88.7564 148.595C89.0797 148.616 89.4038 148.571 89.7092 148.462C90.0146 148.353 90.2949 148.184 90.5332 147.963C90.7714 147.742 90.9627 147.476 91.0954 147.179C91.2281 146.882 91.2995 146.561 91.3053 146.236C92.4367 132.143 98.4198 118.949 106.989 107.765C107.199 107.517 107.358 107.229 107.454 106.917C107.55 106.605 107.582 106.278 107.549 105.953C107.515 105.629 107.416 105.315 107.258 105.03C107.099 104.745 106.885 104.495 106.628 104.296C106.371 104.097 106.076 103.952 105.762 103.871C105.448 103.79 105.12 103.773 104.799 103.823C104.478 103.873 104.171 103.988 103.895 104.16C103.62 104.333 103.382 104.56 103.197 104.828Z" fill="#FF4351"/>
<path d="M117.774 79.6384C118.252 79.3234 118.749 78.5294 117.774 79.6384V79.6384Z" fill="#ED1C24"/>
<path d="M117.774 79.6384C118.252 79.3234 118.749 78.5294 117.774 79.6384V79.6384Z" fill="#FF4351"/>
<path d="M122.213 99.176H122.633C122.295 98.6506 120.826 98.2431 122.213 99.176Z" fill="#ED1C24"/>
<path d="M122.63 99.19H122.21C122.342 99.279 122.495 99.376 122.68 99.49C122.697 99.4397 122.701 99.3861 122.693 99.3337C122.684 99.2814 122.662 99.232 122.63 99.19Z" fill="#ED1C24"/>
<path opacity="0.5" d="M122.63 99.19H122.21C122.342 99.279 122.495 99.376 122.68 99.49C122.697 99.4397 122.701 99.3861 122.693 99.3337C122.684 99.2814 122.662 99.232 122.63 99.19Z" fill="#D3263B"/>
<path d="M127.809 101.271L121.066 99.2073C119.932 98.8601 118.732 99.5027 118.386 100.643L118.297 100.935C117.952 102.075 118.591 103.28 119.726 103.628L126.469 105.691C127.604 106.038 128.803 105.396 129.149 104.256L129.238 103.963C129.583 102.824 128.944 101.618 127.809 101.271Z" fill="#303639"/>
<path d="M128.221 101.598L120.546 99.2495C119.669 98.981 118.742 99.4779 118.474 100.359L118.409 100.576C118.141 101.457 118.636 102.389 119.513 102.658L127.188 105.007C128.065 105.275 128.993 104.778 129.26 103.897L129.326 103.68C129.593 102.799 129.099 101.867 128.221 101.598Z" fill="#495459"/>
<path d="M122.957 87.4171C122.291 87.3025 121.607 87.4573 121.054 87.8477C120.502 88.2381 120.126 88.8325 120.008 89.5008L119.014 100.133C119.006 100.807 119.263 101.457 119.728 101.942C120.193 102.428 120.829 102.711 121.499 102.73L123.819 102.955L125.273 87.6369L122.957 87.4171Z" fill="#B5B1AF"/>
<path d="M127.937 100.991L128.947 90.3548C128.954 89.681 128.698 89.0312 128.233 88.5454C127.768 88.0597 127.132 87.7768 126.461 87.7577L125.302 87.6469L124.16 91.3817C123.403 93.8698 123.16 96.4874 123.448 99.0731L123.864 102.962L125.028 103.073C125.687 103.176 126.361 103.016 126.904 102.627C127.448 102.238 127.818 101.651 127.937 100.991Z" fill="#9B9B9B"/>
<path d="M119.962 92.2347C122.293 94.622 126.034 94.1965 128.531 93.0028" stroke="#4E5265" stroke-miterlimit="10" stroke-linecap="round"/>
<path d="M119.45 97.6357C121.781 100.023 125.523 99.5945 128.019 98.4009" stroke="#4E5265" stroke-miterlimit="10" stroke-linecap="round"/>
<path opacity="0.36" d="M96.0964 106.091C91.5926 106.89 85.5956 111.452 80.3661 112.331C72.4124 113.661 71.633 119.736 70.5235 123.189C68.8015 128.575 68.2825 144.218 62.723 148.349C59.8398 150.494 60.0764 159.346 60.8906 161.715C63.1604 168.308 68.9159 162.566 68.9159 162.566L66.0098 158.87L68.4953 154.36L74.034 147.568L79.2277 121.025L104.779 106.157L96.0964 106.091Z" fill="#303639"/>
<path d="M104.047 116.198C104.98 116.772 106.07 117.032 107.16 116.941C107.61 117.068 108.087 117.064 108.535 116.929C108.983 116.793 109.383 116.532 109.689 116.176C112.534 114.6 113.815 111.173 112.577 108.525C111.339 105.877 108.049 105.005 105.22 106.581C105.153 106.617 105.096 106.66 105.031 106.696L105.002 106.635C83.5773 105.563 63.8314 129.909 70.1416 148.96L72.9414 148.94L77.6141 148.919C70.9261 135.463 89.5117 114.516 104.047 116.198Z" fill="#B5B1AF"/>
<path d="M77.6032 148.915C69.7599 133.126 97.9575 114.069 109.137 116.583L105.003 106.63C83.5714 105.558 63.8255 129.911 70.1427 148.948L77.6032 148.915Z" fill="#B5B1AF"/>
<path opacity="0.5" d="M72.9314 148.937L77.6042 148.916C69.75 133.133 96.1868 115.5 107.964 116.232L108.775 114.445C108.058 113.016 106.873 111.877 105.42 111.219C103.968 110.562 102.334 110.425 100.793 110.832C83.9691 114.713 70.2779 132.96 72.9314 148.937Z" fill="#B5B1AF"/>
<path d="M82.7074 160.198C82.7074 160.198 79.9296 160.837 77.0762 161.197C77.6728 157.916 77.1548 150.633 72.655 151.394C66.0495 152.515 68.209 159.235 70.1188 162.555C68.5788 162.555 65.3805 162.634 65.3805 162.634C60.1619 156.805 62.4098 148.303 70.8903 145.998C88.2103 141.292 82.7074 160.198 82.7074 160.198Z" fill="#ED1C24"/>
<path opacity="0.5" d="M74.6285 151.545C74.5684 151.548 74.5087 151.558 74.4506 151.574C77.296 152.772 77.5883 158.411 77.0793 161.191C77.7692 161.102 78.4632 161.001 79.1144 160.891C79.5866 157.453 78.9364 150.83 74.6285 151.545ZM70.8973 146.005C73.1055 145.306 75.4397 145.103 77.7344 145.411C76.0872 145.448 74.4515 145.698 72.8678 146.155C64.4698 148.442 62.1961 156.773 67.1939 162.594L65.3725 162.637C60.1649 156.81 62.4048 148.328 70.8973 146.006V146.005Z" fill="#ED1C24"/>
<path d="M89.5127 119.333C88.0652 115.198 83.2095 113.454 78.6451 115.449C74.0807 117.444 71.5525 122.382 72.9931 126.528C74.4337 130.675 79.2963 132.408 83.8607 130.431C88.4251 128.454 90.9533 123.465 89.5127 119.333Z" fill="#303639"/>
<path opacity="0.5" d="M72.9851 126.5C74.4297 130.635 79.2953 132.375 83.8627 130.402C85.6559 129.674 87.1894 128.421 88.2634 126.805C89.3375 125.189 89.9024 123.285 89.8846 121.342C88.7796 123.339 87.0472 124.911 84.9583 125.813C80.3909 127.786 75.5243 126.046 74.0807 121.911C73.8552 121.268 73.7292 120.594 73.7069 119.913C73.1312 120.898 72.7693 121.994 72.6449 123.129C72.5205 124.264 72.6364 125.413 72.9851 126.5Z" fill="#303639"/>
<path d="M93.6138 108.309C96.8539 108.787 98.4586 113.716 98.3482 116.529M76.3505 141.159C74.6037 139.776 70.428 139.676 68.9049 141.159H76.3505ZM69.8265 135.084C72.1669 134.226 75.8733 133.958 77.3825 136.078L69.8265 135.084ZM87.0441 111.729C89.6291 112.508 93.1515 115.225 93.582 118.012L87.0441 111.729Z" stroke="#4E5265" stroke-miterlimit="10" stroke-linecap="round"/>
<path d="M81.7928 116.581C85.884 115.612 86.5809 121.631 82.5047 122.599C78.4284 123.567 77.7056 117.55 81.7928 116.581Z" fill="#303639"/>
<path d="M113.789 109.175C113.564 108.49 113.197 107.86 112.714 107.326C112.231 106.792 111.641 106.366 110.984 106.075C110.326 105.784 109.616 105.635 108.897 105.638C108.179 105.641 107.469 105.795 106.814 106.09C105.434 106.713 104.334 107.829 103.727 109.221C103.121 110.614 103.052 112.183 103.533 113.624C103.759 114.309 104.125 114.939 104.608 115.473C105.091 116.007 105.681 116.433 106.338 116.724C106.996 117.014 107.707 117.163 108.425 117.161C109.143 117.158 109.853 117.004 110.508 116.708C111.889 116.087 112.99 114.971 113.596 113.578C114.203 112.185 114.272 110.616 113.789 109.175Z" fill="#303639"/>
<path d="M111.151 107.411C113.285 106.892 113.736 110.695 111.613 111.214C109.49 111.732 109.03 107.943 111.151 107.411Z" fill="#303639"/>
<path opacity="0.42" d="M61.1014 125.716C59.113 142.903 54.3677 156.07 42.3657 166.041C52.3504 161.299 58.6397 158.411 62.1324 154.126C71.0255 143.2 78.9344 119.364 93.759 114.405C101.525 111.808 108.586 101.496 108.586 100.503C109.571 99.5087 107.596 99.5087 107.596 99.5087C107.596 99.5087 63.7867 102.5 61.1014 125.716Z" fill="#2E3639"/>
<path d="M63.0759 128.697C61.0875 145.878 50.3908 159.379 38.3888 169.352C48.3736 164.609 57.6505 159.402 61.1561 155.117C70.0492 144.191 76.9639 118.374 91.7944 113.409C99.5602 110.812 106.236 106.029 110.839 102.066C111.348 99.9531 111.583 98.8024 111.583 98.8024C111.583 98.8024 65.7652 105.477 63.0759 128.697Z" fill="#ED1C24"/>
</svg>
